<svg width="24" height="24" viewBox="0 0 24 24" fill="none" xmlns="http://www.w3.org/2000/svg">
<path d="M5.30941 2H18.6882C20.5156 2 22 3.48418 22 5.31144V18.6886C22 20.5158 20.5156 22 18.6882 22H5.31184C3.48437 22 2 20.5158 2 18.6886V5.309C2 3.48418 3.48437 2 5.30941 2Z" fill="#911A00"/>
<path d="M8 7.69792V5.48925C8 5.21875 8.20339 5 8.45489 5C8.7064 5 8.90979 5.21875 8.90979 5.48925V7.69792C8.90979 9.53024 10.2963 11.0215 12 11.0215C13.7037 11.0215 15.0902 9.53024 15.0902 7.69792V5.48925C15.0902 5.21875 15.2936 5 15.5451 5C15.7966 5 16 5.21875 16 5.48925V7.69792C16 10.0712 14.2045 12 12 12C9.79552 12 8 10.0689 8 7.69792Z" fill="white"/>
<path d="M19 19H17.9665L16.1936 16.624V19H15V15H16.0335L17.8064 17.4216V15H19V19Z" fill="white"/>
</svg>
